<?xml version="1.0" encoding="UTF-8" standalone="no"?>
<!-- Created with Inkscape (http://www.inkscape.org/) -->

<svg
   xmlns:dc="http://purl.org/dc/elements/1.1/"
   xmlns:cc="http://creativecommons.org/ns#"
   xmlns:rdf="http://www.w3.org/1999/02/22-rdf-syntax-ns#"
   xmlns:svg="http://www.w3.org/2000/svg"
   xmlns="http://www.w3.org/2000/svg"
   xmlns:sodipodi="http://sodipodi.sourceforge.net/DTD/sodipodi-0.dtd"
   xmlns:inkscape="http://www.inkscape.org/namespaces/inkscape"
   width="233.60013mm"
   height="233.60013mm"
   viewBox="0 0 233.60014 233.60014"
   version="1.1"
   id="svg8"
   inkscape:version="0.92.2 2405546, 2018-03-11"
   sodipodi:docname="logo78-4.svg">
  <defs
     id="defs2" />
  <sodipodi:namedview
     id="base"
     pagecolor="#ffffff"
     bordercolor="#666666"
     borderopacity="1.0"
     inkscape:pageopacity="0.0"
     inkscape:pageshadow="2"
     inkscape:zoom="0.92196368"
     inkscape:cx="441.44906"
     inkscape:cy="441.44906"
     inkscape:document-units="mm"
     inkscape:current-layer="layer1"
     showgrid="false"
     showguides="true"
     inkscape:guide-bbox="true"
     fit-margin-left="0.8"
     fit-margin-top="0.8"
     fit-margin-right="0.8"
     fit-margin-bottom="0.8"
     inkscape:window-width="1920"
     inkscape:window-height="1011"
     inkscape:window-x="0"
     inkscape:window-y="0"
     inkscape:window-maximized="1" />
  <metadata
     id="metadata5">
    <rdf:RDF>
      <cc:Work
         rdf:about="">
        <dc:format>image/svg+xml</dc:format>
        <dc:type
           rdf:resource="http://purl.org/dc/dcmitype/StillImage" />
        <dc:title></dc:title>
      </cc:Work>
    </rdf:RDF>
  </metadata>
  <g
     inkscape:label="Ebene 1"
     inkscape:groupmode="layer"
     id="layer1"
     transform="translate(-21.405402,0.87657859)">
    <path
       style="fill:#0000b8;fill-opacity:1;stroke:#000000;stroke-width:0.73149699;stroke-opacity:1"
       d="M 423.30664,-14.601562 -14.601562,423.30664 423.30664,861.21484 861.21484,423.30664 Z m 5.35938,137.058592 c 31.92393,0 63.8495,5.35276 95.77343,16.06055 32.39343,10.70779 63.84776,27.04506 94.36328,49.00976 30.98499,21.96468 56.10139,53.26564 75.34961,93.90039 19.24827,40.36011 28.8711,86.89603 28.8711,139.61133 0,54.63719 -10.09212,102.54861 -30.2793,143.73242 -20.18717,40.90927 -46.47771,72.07074 -78.87109,93.48633 -31.92393,21.41556 -64.3188,37.06508 -97.18164,46.94922 -32.86288,9.60953 -65.02018,14.41406 -96.47461,14.41406 -33.80183,0 -66.89955,-4.94206 -99.29297,-14.82617 -31.92393,-10.15865 -63.14464,-25.94378 -93.66016,-47.35937 -30.04604,-21.41556 -54.45754,-52.44142 -73.23633,-93.07617 -18.77878,-40.9092 -28.16992,-88.68313 -28.16992,-143.32032 0,-94.44831 30.75145,-167.75375 92.25196,-219.91992 61.50052,-52.44073 131.68576,-78.66211 210.55664,-78.66211 z m -8.44922,32.94727 c -28.63763,0 -54.69251,7.8228 -78.16602,23.47265 -23.00398,15.3753 -41.31312,35.41862 -54.92773,60.12891 -12.83314,24.12373 -22.97564,49.95485 -30.43946,77.48047 33.86001,-4.01537 66.98776,-9.67465 99.36524,-17.02149 8.00628,0 12.93366,3.07358 14.78125,9.22461 2.25815,8.61143 3.79796,19.50869 4.61914,32.68946 13.75434,-9.31438 31.00015,-18.62894 51.73437,-27.94336 20.93949,-9.49013 38.08002,-14.32426 51.42383,-14.5 26.89285,-0.35154 47.72894,6.41511 62.50977,20.29883 14.98609,13.708 22.48047,35.85216 22.48047,66.43164 v 153.42382 c 0,20.28941 0.69496,38.22004 2.07226,53.84571 22.60214,-41.62061 34.91081,-88.62125 37.13672,-140.89453 0.18516,-1.68783 0.36054,-3.37953 0.52344,-5.07227 0.60004,-8.78332 0.90058,-17.60425 0.90039,-26.43164 1.9e-4,-6.24854 -0.15032,-12.49562 -0.45117,-18.72852 -0.31147,-4.91591 -0.71667,-9.81843 -1.21485,-14.70117 C 599.17263,326.4654 581.70153,273.60099 549.79102,228.71094 515.05024,179.83948 471.85845,155.40431 420.2168,155.4043 Z M 252.66797,333.8457 c -2.03339,10.05891 -3.61295,20.15386 -4.77149,30.28125 -0.22732,1.26732 -0.44762,2.53847 -0.6621,3.81055 -1.19398,8.65123 -2.09348,17.383 -2.69336,26.16602 -0.60058,8.78324 -0.9019,17.60612 -0.90235,26.43359 4.8e-4,6.24854 0.15167,12.49566 0.45313,18.72851 0.42468,8.80551 1.14871,17.57418 2.16992,26.27344 0.58584,4.33444 1.24568,8.64566 1.97851,12.93164 5.91362,49.45841 22.03755,94.07103 48.74024,133.66211 33.80183,49.42054 77.22729,74.13086 130.27734,74.13086 19.477,0 37.49289,-3.32585 54.0586,-9.95117 0.21365,-36.10431 0.42708,-72.20819 0.64062,-108.3125 -0.1697,-8.96719 -0.27148,-18.51135 -0.27148,-28.91016 V 394.89258 c 0,-17.92581 -2.56505,-31.45888 -7.69727,-40.59766 -4.92692,-9.31438 -13.9611,-13.9707 -27.09961,-13.9707 -22.78711,0 -46.49616,7.55779 -71.13086,22.67187 v 2.63477 c 0,33.21555 0.10141,83.2155 0.30664,149.99805 0,10.01733 -2.25904,17.30957 -6.77539,21.8789 -4.31108,4.56934 -13.13669,6.85547 -26.48047,6.85547 -18.06546,0 -30.79318,-1.40689 -38.18359,-4.21875 -7.18515,-2.63614 -10.7793,-7.64416 -10.7793,-15.02539 V 372.2207 c 0,-15.1141 -2.46367,-24.7802 -7.39062,-28.99804 -4.72165,-4.39359 -15.90766,-7.29328 -33.5625,-8.69922 -0.0827,-0.23018 -0.1463,-0.44983 -0.22461,-0.67774 z"
       transform="matrix(0.26458333,0,0,0.26458333,26.205587,3.9236061)"
       id="rect8"
       inkscape:connector-curvature="0" />
  </g>
</svg>
